<mxfile host="Electron" modified="2023-11-02T10:06:17.206Z" agent="Mozilla/5.0 (Windows NT 10.0; Win64; x64) AppleWebKit/537.36 (KHTML, like Gecko) draw.io/21.5.1 Chrome/112.0.5615.204 Electron/24.6.0 Safari/537.36" etag="bO23YXD5Z7nPh9QkRsM3" version="21.5.1" type="device">
  <diagram name="Страница 1" id="YbsNc8LQd03td60lruMs">
    <mxGraphModel dx="2261" dy="2005" grid="1" gridSize="10" guides="1" tooltips="1" connect="1" arrows="1" fold="1" page="1" pageScale="1" pageWidth="827" pageHeight="1169" math="0" shadow="0">
      <root>
        <mxCell id="0" />
        <mxCell id="1" parent="0" />
        <mxCell id="E3PSOH2wF54vng3fYC1S-49" value="" style="rounded=0;whiteSpace=wrap;html=1;fillColor=none;strokeColor=#82b366;opacity=25;" parent="1" vertex="1">
          <mxGeometry x="-110" y="30" width="1190" height="440" as="geometry" />
        </mxCell>
        <mxCell id="Bo0hBIC88eSdavsUq6v1-3" style="edgeStyle=orthogonalEdgeStyle;rounded=0;orthogonalLoop=1;jettySize=auto;html=1;exitX=0.5;exitY=1;exitDx=0;exitDy=0;entryX=0.5;entryY=0;entryDx=0;entryDy=0;" edge="1" parent="1" source="E3PSOH2wF54vng3fYC1S-4" target="Bo0hBIC88eSdavsUq6v1-1">
          <mxGeometry relative="1" as="geometry">
            <Array as="points">
              <mxPoint x="35" y="480" />
              <mxPoint x="290" y="480" />
            </Array>
          </mxGeometry>
        </mxCell>
        <mxCell id="E3PSOH2wF54vng3fYC1S-4" value="" style="rounded=0;whiteSpace=wrap;html=1;fillColor=#f8cecc;strokeColor=#b85450;opacity=25;" parent="1" vertex="1">
          <mxGeometry x="-90" y="235" width="250" height="215" as="geometry" />
        </mxCell>
        <mxCell id="TsnaQi-Hmahm1OMMNOQ9-14" value="Общая схема модуля админки и бэка логики" style="text;html=1;strokeColor=none;fillColor=none;align=center;verticalAlign=middle;whiteSpace=wrap;rounded=0;" parent="1" vertex="1">
          <mxGeometry x="450" width="130" height="30" as="geometry" />
        </mxCell>
        <mxCell id="E3PSOH2wF54vng3fYC1S-2" value="" style="endArrow=classic;html=1;rounded=0;entryX=0;entryY=0.5;entryDx=0;entryDy=0;" parent="1" edge="1">
          <mxGeometry width="50" height="50" relative="1" as="geometry">
            <mxPoint x="-210" y="337.08" as="sourcePoint" />
            <mxPoint x="-90" y="337.2499999999999" as="targetPoint" />
          </mxGeometry>
        </mxCell>
        <mxCell id="E3PSOH2wF54vng3fYC1S-3" value="Входящий&lt;br&gt;запрос" style="edgeLabel;html=1;align=center;verticalAlign=middle;resizable=0;points=[];" parent="E3PSOH2wF54vng3fYC1S-2" vertex="1" connectable="0">
          <mxGeometry x="-0.2" y="-1" relative="1" as="geometry">
            <mxPoint as="offset" />
          </mxGeometry>
        </mxCell>
        <mxCell id="E3PSOH2wF54vng3fYC1S-12" style="edgeStyle=orthogonalEdgeStyle;rounded=0;orthogonalLoop=1;jettySize=auto;html=1;exitX=1;exitY=0.5;exitDx=0;exitDy=0;entryX=0;entryY=0.5;entryDx=0;entryDy=0;" parent="1" source="E3PSOH2wF54vng3fYC1S-4" target="E3PSOH2wF54vng3fYC1S-8" edge="1">
          <mxGeometry relative="1" as="geometry">
            <Array as="points">
              <mxPoint x="180" y="343" />
              <mxPoint x="180" y="210" />
              <mxPoint x="140" y="210" />
              <mxPoint x="140" y="160" />
            </Array>
          </mxGeometry>
        </mxCell>
        <mxCell id="E3PSOH2wF54vng3fYC1S-13" style="edgeStyle=orthogonalEdgeStyle;rounded=0;orthogonalLoop=1;jettySize=auto;html=1;exitX=1;exitY=0.5;exitDx=0;exitDy=0;entryX=0;entryY=0.5;entryDx=0;entryDy=0;" parent="1" source="E3PSOH2wF54vng3fYC1S-4" target="E3PSOH2wF54vng3fYC1S-9" edge="1">
          <mxGeometry relative="1" as="geometry">
            <Array as="points">
              <mxPoint x="180" y="343" />
              <mxPoint x="180" y="210" />
              <mxPoint x="140" y="210" />
              <mxPoint x="140" y="110" />
            </Array>
          </mxGeometry>
        </mxCell>
        <mxCell id="E3PSOH2wF54vng3fYC1S-14" style="edgeStyle=orthogonalEdgeStyle;rounded=0;orthogonalLoop=1;jettySize=auto;html=1;exitX=1;exitY=0.5;exitDx=0;exitDy=0;entryX=0;entryY=0.5;entryDx=0;entryDy=0;" parent="1" source="E3PSOH2wF54vng3fYC1S-4" target="E3PSOH2wF54vng3fYC1S-6" edge="1">
          <mxGeometry relative="1" as="geometry">
            <Array as="points">
              <mxPoint x="180" y="343" />
              <mxPoint x="180" y="210" />
              <mxPoint x="140" y="210" />
              <mxPoint x="140" y="60" />
            </Array>
          </mxGeometry>
        </mxCell>
        <mxCell id="E3PSOH2wF54vng3fYC1S-15" style="edgeStyle=orthogonalEdgeStyle;rounded=0;orthogonalLoop=1;jettySize=auto;html=1;exitX=1;exitY=0.5;exitDx=0;exitDy=0;entryX=0;entryY=0.5;entryDx=0;entryDy=0;" parent="1" source="E3PSOH2wF54vng3fYC1S-4" target="E3PSOH2wF54vng3fYC1S-5" edge="1">
          <mxGeometry relative="1" as="geometry" />
        </mxCell>
        <mxCell id="E3PSOH2wF54vng3fYC1S-23" style="edgeStyle=orthogonalEdgeStyle;rounded=0;orthogonalLoop=1;jettySize=auto;html=1;exitX=0;exitY=0.5;exitDx=0;exitDy=0;entryX=0;entryY=0.5;entryDx=0;entryDy=0;" parent="1" source="E3PSOH2wF54vng3fYC1S-4" target="E3PSOH2wF54vng3fYC1S-20" edge="1">
          <mxGeometry relative="1" as="geometry">
            <Array as="points">
              <mxPoint x="-60" y="337" />
              <mxPoint x="-60" y="300" />
            </Array>
          </mxGeometry>
        </mxCell>
        <mxCell id="Bo0hBIC88eSdavsUq6v1-6" style="edgeStyle=orthogonalEdgeStyle;rounded=0;orthogonalLoop=1;jettySize=auto;html=1;exitX=0.5;exitY=1;exitDx=0;exitDy=0;entryX=0.5;entryY=0;entryDx=0;entryDy=0;" edge="1" parent="1" source="E3PSOH2wF54vng3fYC1S-5" target="Bo0hBIC88eSdavsUq6v1-1">
          <mxGeometry relative="1" as="geometry">
            <Array as="points">
              <mxPoint x="660" y="480" />
              <mxPoint x="290" y="480" />
            </Array>
          </mxGeometry>
        </mxCell>
        <mxCell id="E3PSOH2wF54vng3fYC1S-5" value="" style="rounded=0;whiteSpace=wrap;html=1;fillColor=#dae8fc;strokeColor=#6c8ebf;opacity=25;" parent="1" vertex="1">
          <mxGeometry x="250" y="70" width="820" height="380" as="geometry" />
        </mxCell>
        <mxCell id="E3PSOH2wF54vng3fYC1S-6" value="Контроллер Controller" style="rounded=0;whiteSpace=wrap;html=1;fillColor=#dae8fc;strokeColor=#6c8ebf;" parent="1" vertex="1">
          <mxGeometry x="160" y="40" width="70" height="40" as="geometry" />
        </mxCell>
        <mxCell id="E3PSOH2wF54vng3fYC1S-8" value="Контроллер Controller" style="rounded=0;whiteSpace=wrap;html=1;fillColor=#dae8fc;strokeColor=#6c8ebf;" parent="1" vertex="1">
          <mxGeometry x="160" y="140" width="70" height="40" as="geometry" />
        </mxCell>
        <mxCell id="E3PSOH2wF54vng3fYC1S-9" value="Контроллер Controller" style="rounded=0;whiteSpace=wrap;html=1;fillColor=#dae8fc;strokeColor=#6c8ebf;" parent="1" vertex="1">
          <mxGeometry x="160" y="90" width="70" height="40" as="geometry" />
        </mxCell>
        <mxCell id="E3PSOH2wF54vng3fYC1S-10" value="Контроллер Controller" style="text;html=1;strokeColor=none;fillColor=none;align=center;verticalAlign=middle;whiteSpace=wrap;rounded=0;" parent="1" vertex="1">
          <mxGeometry x="976" y="70" width="94" height="30" as="geometry" />
        </mxCell>
        <mxCell id="E3PSOH2wF54vng3fYC1S-25" style="edgeStyle=orthogonalEdgeStyle;rounded=0;orthogonalLoop=1;jettySize=auto;html=1;exitX=1;exitY=0.5;exitDx=0;exitDy=0;entryX=0;entryY=0.5;entryDx=0;entryDy=0;" parent="1" source="E3PSOH2wF54vng3fYC1S-16" target="E3PSOH2wF54vng3fYC1S-17" edge="1">
          <mxGeometry relative="1" as="geometry" />
        </mxCell>
        <mxCell id="E3PSOH2wF54vng3fYC1S-26" style="rounded=0;orthogonalLoop=1;jettySize=auto;html=1;exitX=0;exitY=0.5;exitDx=0;exitDy=0;entryX=0;entryY=0.5;entryDx=0;entryDy=0;startArrow=classic;startFill=1;endArrow=none;endFill=0;" parent="1" source="E3PSOH2wF54vng3fYC1S-16" target="E3PSOH2wF54vng3fYC1S-5" edge="1">
          <mxGeometry relative="1" as="geometry" />
        </mxCell>
        <mxCell id="E3PSOH2wF54vng3fYC1S-16" value="Сбор переданных данных, первичная обработка с помощью filter_var" style="rounded=0;whiteSpace=wrap;html=1;" parent="1" vertex="1">
          <mxGeometry x="260" y="230" width="120" height="60" as="geometry" />
        </mxCell>
        <mxCell id="E3PSOH2wF54vng3fYC1S-28" style="rounded=0;orthogonalLoop=1;jettySize=auto;html=1;exitX=1;exitY=0.5;exitDx=0;exitDy=0;entryX=0;entryY=0.5;entryDx=0;entryDy=0;" parent="1" source="E3PSOH2wF54vng3fYC1S-17" target="E3PSOH2wF54vng3fYC1S-18" edge="1">
          <mxGeometry relative="1" as="geometry" />
        </mxCell>
        <mxCell id="Bo0hBIC88eSdavsUq6v1-5" style="edgeStyle=orthogonalEdgeStyle;rounded=0;orthogonalLoop=1;jettySize=auto;html=1;exitX=0.5;exitY=1;exitDx=0;exitDy=0;entryX=0.5;entryY=1;entryDx=0;entryDy=0;" edge="1" parent="1" source="E3PSOH2wF54vng3fYC1S-17" target="E3PSOH2wF54vng3fYC1S-5">
          <mxGeometry relative="1" as="geometry">
            <Array as="points">
              <mxPoint x="483" y="430" />
              <mxPoint x="660" y="430" />
            </Array>
          </mxGeometry>
        </mxCell>
        <mxCell id="E3PSOH2wF54vng3fYC1S-17" value="Валидатор Validator&lt;br&gt;Валидация переданных данных на соответствие условиям выполнения бизнес логики" style="rounded=0;whiteSpace=wrap;html=1;" parent="1" vertex="1">
          <mxGeometry x="420" y="210" width="130" height="100" as="geometry" />
        </mxCell>
        <mxCell id="E3PSOH2wF54vng3fYC1S-39" style="edgeStyle=orthogonalEdgeStyle;rounded=0;orthogonalLoop=1;jettySize=auto;html=1;exitX=1;exitY=0.5;exitDx=0;exitDy=0;entryX=1;entryY=0.5;entryDx=0;entryDy=0;" parent="1" source="E3PSOH2wF54vng3fYC1S-18" target="E3PSOH2wF54vng3fYC1S-5" edge="1">
          <mxGeometry relative="1" as="geometry">
            <mxPoint x="890" y="140" as="targetPoint" />
            <Array as="points">
              <mxPoint x="850" y="260" />
              <mxPoint x="850" y="140" />
              <mxPoint x="1040" y="140" />
              <mxPoint x="1040" y="260" />
            </Array>
          </mxGeometry>
        </mxCell>
        <mxCell id="E3PSOH2wF54vng3fYC1S-41" style="edgeStyle=orthogonalEdgeStyle;rounded=0;orthogonalLoop=1;jettySize=auto;html=1;exitX=1;exitY=0.5;exitDx=0;exitDy=0;entryX=0;entryY=0.5;entryDx=0;entryDy=0;" parent="1" source="E3PSOH2wF54vng3fYC1S-18" target="E3PSOH2wF54vng3fYC1S-40" edge="1">
          <mxGeometry relative="1" as="geometry" />
        </mxCell>
        <mxCell id="Bo0hBIC88eSdavsUq6v1-7" style="edgeStyle=orthogonalEdgeStyle;rounded=0;orthogonalLoop=1;jettySize=auto;html=1;exitX=0.5;exitY=1;exitDx=0;exitDy=0;entryX=0.5;entryY=1;entryDx=0;entryDy=0;" edge="1" parent="1" source="E3PSOH2wF54vng3fYC1S-18" target="E3PSOH2wF54vng3fYC1S-5">
          <mxGeometry relative="1" as="geometry">
            <Array as="points">
              <mxPoint x="695" y="430" />
              <mxPoint x="660" y="430" />
            </Array>
          </mxGeometry>
        </mxCell>
        <mxCell id="E3PSOH2wF54vng3fYC1S-18" value="" style="rounded=0;whiteSpace=wrap;html=1;fillColor=#d5e8d4;strokeColor=#82b366;opacity=25;" parent="1" vertex="1">
          <mxGeometry x="580" y="95" width="230" height="330" as="geometry" />
        </mxCell>
        <mxCell id="E3PSOH2wF54vng3fYC1S-19" value="Роутер Router" style="text;html=1;strokeColor=none;fillColor=none;align=center;verticalAlign=middle;whiteSpace=wrap;rounded=0;" parent="1" vertex="1">
          <mxGeometry x="50" y="235" width="110" height="30" as="geometry" />
        </mxCell>
        <mxCell id="E3PSOH2wF54vng3fYC1S-22" style="edgeStyle=orthogonalEdgeStyle;rounded=0;orthogonalLoop=1;jettySize=auto;html=1;exitX=0.5;exitY=1;exitDx=0;exitDy=0;entryX=0.5;entryY=0;entryDx=0;entryDy=0;" parent="1" source="E3PSOH2wF54vng3fYC1S-20" target="E3PSOH2wF54vng3fYC1S-21" edge="1">
          <mxGeometry relative="1" as="geometry" />
        </mxCell>
        <mxCell id="E3PSOH2wF54vng3fYC1S-34" style="edgeStyle=orthogonalEdgeStyle;rounded=0;orthogonalLoop=1;jettySize=auto;html=1;exitX=0.5;exitY=0;exitDx=0;exitDy=0;entryX=0.5;entryY=1;entryDx=0;entryDy=0;shape=flexArrow;width=4.285714285714286;endSize=3.5238095238095237;startArrow=block;startFill=0;endArrow=none;endFill=0;startWidth=7.959183673469388;startSize=3.5238095238095237;" parent="1" source="E3PSOH2wF54vng3fYC1S-20" target="E3PSOH2wF54vng3fYC1S-33" edge="1">
          <mxGeometry relative="1" as="geometry" />
        </mxCell>
        <mxCell id="E3PSOH2wF54vng3fYC1S-48" value="Выдать&lt;br&gt;список прав пользователя" style="edgeLabel;html=1;align=center;verticalAlign=middle;resizable=0;points=[];" parent="E3PSOH2wF54vng3fYC1S-34" vertex="1" connectable="0">
          <mxGeometry x="0.2103" y="-2" relative="1" as="geometry">
            <mxPoint as="offset" />
          </mxGeometry>
        </mxCell>
        <mxCell id="Bo0hBIC88eSdavsUq6v1-4" style="edgeStyle=orthogonalEdgeStyle;rounded=0;orthogonalLoop=1;jettySize=auto;html=1;exitX=0.5;exitY=1;exitDx=0;exitDy=0;entryX=0.5;entryY=1;entryDx=0;entryDy=0;" edge="1" parent="1" source="E3PSOH2wF54vng3fYC1S-20" target="E3PSOH2wF54vng3fYC1S-4">
          <mxGeometry relative="1" as="geometry">
            <Array as="points">
              <mxPoint x="35" y="340" />
              <mxPoint x="-40" y="340" />
              <mxPoint x="-40" y="430" />
              <mxPoint x="35" y="430" />
            </Array>
          </mxGeometry>
        </mxCell>
        <mxCell id="E3PSOH2wF54vng3fYC1S-20" value="Проверка прав Accesses" style="rounded=0;whiteSpace=wrap;html=1;" parent="1" vertex="1">
          <mxGeometry x="-25" y="270" width="120" height="60" as="geometry" />
        </mxCell>
        <mxCell id="E3PSOH2wF54vng3fYC1S-24" style="edgeStyle=orthogonalEdgeStyle;rounded=0;orthogonalLoop=1;jettySize=auto;html=1;exitX=0.5;exitY=1;exitDx=0;exitDy=0;entryX=1;entryY=0.5;entryDx=0;entryDy=0;" parent="1" source="E3PSOH2wF54vng3fYC1S-21" target="E3PSOH2wF54vng3fYC1S-4" edge="1">
          <mxGeometry relative="1" as="geometry">
            <Array as="points">
              <mxPoint x="35" y="420" />
              <mxPoint x="130" y="420" />
              <mxPoint x="130" y="342" />
            </Array>
          </mxGeometry>
        </mxCell>
        <mxCell id="E3PSOH2wF54vng3fYC1S-21" value="Вызов нужного контроллера" style="rounded=0;whiteSpace=wrap;html=1;" parent="1" vertex="1">
          <mxGeometry x="-25" y="350" width="120" height="60" as="geometry" />
        </mxCell>
        <mxCell id="E3PSOH2wF54vng3fYC1S-27" value="Сервис Service. Выполнение бизнес логики" style="text;html=1;strokeColor=none;fillColor=none;align=center;verticalAlign=middle;whiteSpace=wrap;rounded=0;" parent="1" vertex="1">
          <mxGeometry x="585" y="95" width="220" height="30" as="geometry" />
        </mxCell>
        <mxCell id="E3PSOH2wF54vng3fYC1S-29" value="Мутация данных&lt;br&gt;Преобразование полученных данных" style="rounded=0;whiteSpace=wrap;html=1;" parent="1" vertex="1">
          <mxGeometry x="605" y="130" width="180" height="70" as="geometry" />
        </mxCell>
        <mxCell id="E3PSOH2wF54vng3fYC1S-37" style="edgeStyle=orthogonalEdgeStyle;rounded=0;orthogonalLoop=1;jettySize=auto;html=1;exitX=0;exitY=0.5;exitDx=0;exitDy=0;entryX=0.5;entryY=0;entryDx=0;entryDy=0;entryPerimeter=0;shape=flexArrow;startArrow=block;startFill=0;width=5.333333333333333;endSize=3.6666666666666665;endWidth=8.222222222222223;startWidth=8.222222222222223;startSize=5;" parent="1" source="E3PSOH2wF54vng3fYC1S-30" target="E3PSOH2wF54vng3fYC1S-36" edge="1">
          <mxGeometry relative="1" as="geometry" />
        </mxCell>
        <mxCell id="E3PSOH2wF54vng3fYC1S-30" value="Запрос или запись данных в БД с помощью Гейтвей Gateway" style="rounded=0;whiteSpace=wrap;html=1;" parent="1" vertex="1">
          <mxGeometry x="605" y="340" width="180" height="70" as="geometry" />
        </mxCell>
        <mxCell id="E3PSOH2wF54vng3fYC1S-31" value="Работа с моделями Model&lt;br&gt;Создание моделей(в том числе после запроса к БД) и работа с ними" style="rounded=0;whiteSpace=wrap;html=1;" parent="1" vertex="1">
          <mxGeometry x="605" y="200" width="180" height="70" as="geometry" />
        </mxCell>
        <mxCell id="E3PSOH2wF54vng3fYC1S-32" value="Прочие операции" style="rounded=0;whiteSpace=wrap;html=1;" parent="1" vertex="1">
          <mxGeometry x="605" y="270" width="180" height="70" as="geometry" />
        </mxCell>
        <mxCell id="E3PSOH2wF54vng3fYC1S-33" value="Модуль авторизации" style="rounded=0;whiteSpace=wrap;html=1;fillColor=#d5e8d4;strokeColor=#82b366;" parent="1" vertex="1">
          <mxGeometry x="-25" y="-60" width="120" height="60" as="geometry" />
        </mxCell>
        <mxCell id="E3PSOH2wF54vng3fYC1S-36" value="БД" style="shape=cylinder3;whiteSpace=wrap;html=1;boundedLbl=1;backgroundOutline=1;size=15;fillColor=#e1d5e7;strokeColor=#9673a6;" parent="1" vertex="1">
          <mxGeometry x="520" y="505" width="60" height="80" as="geometry" />
        </mxCell>
        <mxCell id="E3PSOH2wF54vng3fYC1S-44" style="edgeStyle=orthogonalEdgeStyle;rounded=0;orthogonalLoop=1;jettySize=auto;html=1;exitX=1;exitY=0.5;exitDx=0;exitDy=0;entryX=1;entryY=0.5;entryDx=0;entryDy=0;" parent="1" source="E3PSOH2wF54vng3fYC1S-40" target="E3PSOH2wF54vng3fYC1S-5" edge="1">
          <mxGeometry relative="1" as="geometry">
            <Array as="points">
              <mxPoint x="1040" y="335" />
              <mxPoint x="1040" y="260" />
            </Array>
          </mxGeometry>
        </mxCell>
        <mxCell id="E3PSOH2wF54vng3fYC1S-40" value="Подготовка отображения View&lt;br&gt;Наполнение шаблона данными" style="rounded=0;whiteSpace=wrap;html=1;" parent="1" vertex="1">
          <mxGeometry x="890" y="305" width="120" height="60" as="geometry" />
        </mxCell>
        <mxCell id="E3PSOH2wF54vng3fYC1S-43" style="edgeStyle=orthogonalEdgeStyle;rounded=0;orthogonalLoop=1;jettySize=auto;html=1;exitX=0.5;exitY=1;exitDx=0;exitDy=0;entryX=0.5;entryY=0;entryDx=0;entryDy=0;" parent="1" source="E3PSOH2wF54vng3fYC1S-42" target="E3PSOH2wF54vng3fYC1S-40" edge="1">
          <mxGeometry relative="1" as="geometry" />
        </mxCell>
        <mxCell id="E3PSOH2wF54vng3fYC1S-42" value="Шаблон отображения ViewTemplate&lt;br&gt;Может быть как html, так и blade" style="rounded=1;whiteSpace=wrap;html=1;" parent="1" vertex="1">
          <mxGeometry x="890" y="190" width="120" height="80" as="geometry" />
        </mxCell>
        <mxCell id="E3PSOH2wF54vng3fYC1S-45" value="Отправка&amp;nbsp;&lt;br&gt;результата&lt;br&gt;по&lt;br&gt;запросу" style="endArrow=classic;html=1;rounded=0;exitX=1;exitY=0.5;exitDx=0;exitDy=0;" parent="1" source="E3PSOH2wF54vng3fYC1S-5" edge="1">
          <mxGeometry width="50" height="50" relative="1" as="geometry">
            <mxPoint x="1100" y="270" as="sourcePoint" />
            <mxPoint x="1160" y="260" as="targetPoint" />
          </mxGeometry>
        </mxCell>
        <mxCell id="Bo0hBIC88eSdavsUq6v1-1" value="Отработка всех ошибок" style="rounded=0;whiteSpace=wrap;html=1;fillColor=#ffe6cc;strokeColor=#d79b00;opacity=25;" vertex="1" parent="1">
          <mxGeometry x="190" y="505" width="200" height="55" as="geometry" />
        </mxCell>
      </root>
    </mxGraphModel>
  </diagram>
</mxfile>
